<?xml version="1.0" standalone="no"?>
<!DOCTYPE svg PUBLIC "-//W3C//DTD SVG 1.1//EN" "http://www.w3.org/Graphics/SVG/1.1/DTD/svg11.dtd" >
<svg xmlns="http://www.w3.org/2000/svg" xmlns:xlink="http://www.w3.org/1999/xlink" version="1.1">
<metadata>
Created by FontForge 20170731 at Mon Apr  6 00:15:24 2015
 By Aleksey,,,
Dreamscar (c)Sharkshock  2001. All rights reserved.
</metadata>
<defs>
<font id="DreamScar" horiz-adv-x="6" >
  <font-face 
    font-family="DreamScar"
    font-weight="400"
    font-stretch="normal"
    units-per-em="1000"
    panose-1="2 0 0 0 0 0 0 0 0 0"
    ascent="800"
    descent="-200"
    x-height="902"
    cap-height="895"
    bbox="-301 -659 965.8 1179.46"
    underline-thickness="73"
    underline-position="-214"
    unicode-range="U+0020-007A"
  />
<missing-glyph horiz-adv-x="437" 
d="M248 895q-77 1 -129 -69q-49 -76 -62 -194h-14v255h13q-2 -40 16 -47q71 63 164 60q8 -2 12 -5zM379 733q-6 -81 -64 -151q-38 -38 -79 -48q-20 -5 -35.5 -8.5t-26.5 -5.5l-25 -14q-28 -19 -55 -57q-2 -5 -12 -20q-41 -95 -21 -210l21 -46q4 -7 9.5 -12.5t12.5 -10.5
q-6 40 12 87q19 42 64 77q43 25 59 28l11 5l63 28l10 5l21 16q4 5 8.5 10.5t9.5 12.5q4 5 8 12t9 16q53 137 0 286zM338 520q-5 -9 -9.5 -16t-8.5 -12q-11 -17 -17 -23l-22 -16l-10 -5l-62 -29l-12 -4q-8 -2 -22.5 -9.5t-35.5 -18.5q-45 -36 -65 -77q-17 -47 -12 -88
q-13 10 -21 23l-22 47q-19 111 22 210q11 15 12 19q28 40 54 58l26 13q11 2 26 6t35 9q41 10 79 48q59 74 65 151q52 -150 0 -286zM122 -34l-120 135h224z" />
    <glyph glyph-name=".notdef" horiz-adv-x="437" 
d="M248 895q-77 1 -129 -69q-49 -76 -62 -194h-14v255h13q-2 -40 16 -47q71 63 164 60q8 -2 12 -5zM379 733q-6 -81 -64 -151q-38 -38 -79 -48q-20 -5 -35.5 -8.5t-26.5 -5.5l-25 -14q-28 -19 -55 -57q-2 -5 -12 -20q-41 -95 -21 -210l21 -46q4 -7 9.5 -12.5t12.5 -10.5
q-6 40 12 87q19 42 64 77q43 25 59 28l11 5l63 28l10 5l21 16q4 5 8.5 10.5t9.5 12.5q4 5 8 12t9 16q53 137 0 286zM338 520q-5 -9 -9.5 -16t-8.5 -12q-11 -17 -17 -23l-22 -16l-10 -5l-62 -29l-12 -4q-8 -2 -22.5 -9.5t-35.5 -18.5q-45 -36 -65 -77q-17 -47 -12 -88
q-13 10 -21 23l-22 47q-19 111 22 210q11 15 12 19q28 40 54 58l26 13q11 2 26 6t35 9q41 10 79 48q59 74 65 151q52 -150 0 -286zM122 -34l-120 135h224z" />
    <glyph glyph-name=".null" horiz-adv-x="0" 
 />
    <glyph glyph-name="nonmarkingreturn" horiz-adv-x="278" 
 />
    <glyph glyph-name="space" unicode=" " horiz-adv-x="278" 
 />
    <glyph glyph-name="space" unicode="&#xa0;" horiz-adv-x="278" 
 />
    <glyph glyph-name="exclam" unicode="!" horiz-adv-x="396" 
d="M132 907v-1q-17 -69 -49 -115t-83 -73q51 -75 76.5 -166t34.5 -191q12 -102 12 -199l18 2q0 37 3 79t7 84q9 106 35 204.5t80 186.5q-55 28 -85 72t-49 117zM217 685q0 -38 -21.5 -59t-60.5 -21t-60.5 21t-21.5 59q0 37 21.5 58t60.5 21t60.5 -21t21.5 -58zM133 -39
l-116 135h224z" />
    <glyph glyph-name="quotedbl" unicode="&#x22;" horiz-adv-x="130" 
 />
    <glyph glyph-name="numbersign" unicode="#" horiz-adv-x="826" 
d="M367 498q-10 -3 -12 -5q1 -10 7 -46q7 -40 9 -58q-16 -15 -31 -4q-1 15 -8 50q-6 34 -7 50q-2 5 -11 4q-11 -1 -13 0q1 4 8 8q9 4 10 6q-1 16 -9 47q-9 39 -12 51q-11 61 13 80q16 -30 26 -83q12 -67 19 -90q2 -2 9 -2q8 1 11 0q0 -5 -9 -8zM634 300q-3 -14 7 -9t-2 12z
M642 368q1 -7 7 -4q5 4 1 8zM674 440q-2 3 -6 0q3 -7 7 -6q2 4 -1 6zM693 509q1 -5 6 -4q4 1 2 6zM726 517q-16 -10 -24 -54q-10 -57 -18 -75q-33 -73 -32 -68q-2 -36 0 -34q-17 -16 -32 3q-14 19 4 75q6 17 16 42q12 27 12 29l99 275q41 115 72 167q2 1 3 -19q1 -25 -4 -62
q-15 -114 -79 -277q-17 -1 -17 -2zM159 737q6 3 10 -3q4 -5 2 -10q-9 -4 -12 -3q-6 11 0 16zM289 409q-45 104 -52 125q-24 72 -34 111q-26 104 -27 107q-1 4 -9 1q-7 -3 -8 2q3 -1 -1 -3q-3 -1 -6 0q-1 0 -2 1q0 2 -2 2q-5 0 -25 -3q-26 -4 -85 -17q-31 -7 -40 -11
q58 -187 129 -321l77 30l5 -14q23 9 28 4l9 -30q8 -27 20 -52q3 -6 15 -28q9 -16 12 -26q1 -4 1 -16q1 -10 4 -15q10 -14 26 -8q22 8 -2 72q-29 80 -33 89zM482 275q0 -7 -7 -6q-7 0 -7 7q1 7 8 7q7 -1 6 -8zM486 354q0 -7 -7 -7q-7 1 -7 8q1 7 8 6q7 0 6 -7zM490 422
q-1 -7 -8 -6q-6 0 -6 7t7 7q7 -1 7 -8zM455 302q0 -53 20 -55q17 -2 22 15q1 6 0 16q-3 14 -3 18q0 10 6 50q6 39 6 57q0 39 -2 35q-2 -3 55 10q8 154 -16 290q-22 120 -46 132q-11 -76 -21 -238q-11 -196 -16 -250q-4 -39 -5 -80zM789 797q-3 -3 4 -4q-1 2 -4 4z" />
    <glyph glyph-name="dollar" unicode="$" horiz-adv-x="584" 
d="M503 755q11 -2 10 -14q0 -11 -9 -16q-18 5 -21 11q5 20 20 19zM288 200q63 180 78 214q54 117 88 177q90 160 91 165q4 7 -11 11q-14 3 -9 10q2 -3 -5 -2q-6 2 -10 7q-1 1 0 4q1 2 -1 4q-7 5 -40 23q-42 23 -140 71q-54 25 -71 29q-144 -299 -207 -545l146 -47l-9 -23
q42 -13 43 -24q0 -1 -23 -48q-21 -44 -35 -88q-4 -11 -12 -51q-7 -31 -15 -46q-3 -6 -18 -22q-11 -13 -13 -24q-4 -27 26 -37q43 -14 87 93q55 133 60 149z" />
    <glyph glyph-name="percent" unicode="%" horiz-adv-x="441" 
d="M-11 57q-7 -19 8 -16q16 4 1 18zM20 156q0 -11 8 -8t4 11zM84 252q-2 5 -8 3q1 -12 8 -12q3 5 0 9zM129 349q0 -8 7 -8q6 0 5 7q-13 1 -12 1zM177 350q-25 -11 -48 -73q-30 -82 -46 -106q-65 -98 -63 -90q-13 -54 -9 -52q-28 -17 -43 17q-15 33 26 110q13 24 34 57
q23 36 24 40l213 377q88 157 145 224q3 1 -1 -29q-6 -39 -23 -92q-52 -166 -185 -387q-23 4 -24 4z" />
    <glyph glyph-name="ampersand" unicode="&#x26;" horiz-adv-x="130" 
 />
    <glyph glyph-name="quotesingle" unicode="'" horiz-adv-x="130" 
 />
    <glyph glyph-name="parenleft" unicode="(" horiz-adv-x="351" 
d="M116 1162q8 -7 12 -10q19 31 68 27q4 -7 -1 -16q-5 -10 -1 -17q4 -3 16 -4q10 -1 15 -6q-5 6 -1 -21q13 0 17 -3q-1 1 0 -21q18 -13 15 -9q5 -6 2 -12q-4 -9 -3 -12q18 -14 73 -53q46 -33 69 -53q-72 -14 -164 58q-47 -39 -99 -108q-72 -94 -87 -112q-9 12 -28 37
q-18 24 -28 37q110 174 107 159q3 13 -2 44q-3 29 1 46q-2 6 -9 5q-9 -1 -11 1q-7 19 27 53q4 -3 12 -10z" />
    <glyph glyph-name="parenright" unicode=")" horiz-adv-x="351" 
d="M284 1172q35 -34 27 -53q-2 -2 -11 -1q-7 1 -9 -5q5 -17 1 -46q-5 -31 -2 -44q-3 15 107 -159q-10 -13 -28 -37q-19 -25 -28 -37q-15 18 -87 112q-52 69 -99 108q-92 -72 -164 -58q23 20 69 53q55 39 73 53q1 3 -3 12q-3 6 2 12q-3 -4 15 9q1 22 0 21q4 3 17 3
q4 27 -1 21q5 5 15 6q12 1 16 4q4 7 -1 17q-5 9 -1 16q49 4 68 -27q4 3 12 10t12 10z" />
    <glyph glyph-name="asterisk" unicode="*" horiz-adv-x="613" 
d="M346 462q25 20 21 51q-7 54 -64 49q-47 -4 -51 -50q-3 -46 35 -60q32 -12 59 10zM571 659q-4 -5 5 -6q0 3 -5 6zM561 648q-13 1 -15 -6q3 14 43 -32q4 -8 19 -32q-37 -15 -35 -5q-1 -6 15 -20q19 -15 20 -19q3 -4 4 -15q1 -9 5 -13q1 0 -2 -7q-39 6 -31 9q1 3 22 -49
q0 -1 1 -38q-41 5 -34 11q-1 -5 5 -25l7 -23q0 -7 -4 -18q-5 -12 -6 -18q-3 1 -6 6t-7 5l1 4q-1 3 -8 7q4 -1 -11 -4q-5 5 -14 12q-10 8 -14 12q-3 12 -8 12q-10 1 -9 -10q1 -10 15 -7q4 -5 15 -13q10 -8 15 -13q-1 -6 0 -20q2 -14 1 -21q-1 -6 -9 -18q-8 -10 -8 -17
q-6 2 -10 17q-3 12 -12 11q7 1 -18 -49q4 7 -18 -17l-10 -10l-11 32q-9 1 -18 -19q-11 -23 -13 -25q-7 -3 -18 -10q-12 -7 -15 -9q1 -9 2 24q1 11 -9 11q-4 0 -19 -15q-11 -11 -17 -18q-40 -12 -39 -12q4 15 4 14q6 15 6 13q0 20 -38 -5l-15 -10q-10 2 -39 1q0 -1 13 17
q8 11 -1 19q-6 -1 -25 -6q-24 -7 -23 -7q-6 0 -18 5t-20 4q10 42 18 33q4 6 12 14q9 11 12 14q13 3 13 10q1 9 -9 9q-10 -1 -8 -14q-3 -4 -28 -32q-8 1 -21 -1q-13 -1 -19 1q-6 1 -17 9t-18 9q2 6 18 9q13 3 11 13q2 -7 -50 18q-2 4 -12 13q-8 8 -11 14q2 1 20 4q13 1 9 12
q-2 7 -19 14q-20 10 -23 12q-2 7 -9 17q-7 12 -9 18l23 -3q11 -2 12 8q0 7 -15 20q-17 14 -19 19q-3 6 -4 17t-4 17q3 2 18 -6q14 -7 17 4q2 7 -9 22q-12 18 -13 22q-2 7 -1 19q2 13 1 20q6 -1 13 -10q6 -8 13 -7q12 2 6 22q-1 5 -5 17q-4 10 -4 13q3 11 11 35q2 -1 13 -15
q8 -9 16 -3q-4 3 29 -23q-1 -12 10 -12q12 1 8 12q-2 4 -13 4q4 -5 -31 26q1 8 -1 22q-1 13 1 19q1 6 9 17q8 10 9 16q36 -22 24 -26q5 7 14 45q27 23 29 24l2 -19q1 -12 11 -10q7 1 16 19q9 20 12 22q5 2 17 9q11 7 16 8q-4 -33 5 -34q3 0 22 19q4 4 12 10q6 5 8 7
q4 -1 15 2q10 2 15 1q0 -3 -2 -6q-1 -2 -1 -5q-6 -10 -5 -12q2 -13 23 -2q6 4 16 10q9 6 10 7q37 0 38 1q0 -7 -9 -14q-8 -6 -7 -13q2 -11 23 -6q36 10 30 10q6 -2 17 -6q12 -3 17 -5l-14 -11q-9 -7 -3 -17q-4 -6 -12 -15q-8 -10 -11 -15q-8 1 -13 -4q-3 -17 13 -11
q3 1 3 12q3 4 27 31q8 -1 22 0q13 1 19 0t17 -9q10 -7 18 -8q-2 -6 -16 -9q-13 -2 -13 -10t34 -16q18 -4 13 -2q-2 1 16 -16q12 -6 12 -11q-2 -4 -16 -4z" />
    <glyph glyph-name="plus" unicode="+" horiz-adv-x="856" 
d="M810 477q0 9 10 9q9 0 9 -9q0 -10 -9 -10q-10 0 -10 10zM702 477q0 9 9 9q10 0 10 -9q0 -10 -10 -10q-9 0 -9 10zM607 477q0 9 10 9t10 -9q0 -10 -10 -10t-10 10zM674 506q-74 -4 -344 -5q-225 -2 -330 -12q15 -34 178 -72q186 -44 398 -44q22 78 18 76q-5 -3 48 -6
q25 -2 79 4q55 5 70 4q5 0 24 -4q14 -3 22 -1q24 5 23 28q-2 28 -75 32q-57 2 -111 0zM393 821q-9 0 -9 9q0 10 9 10q10 0 10 -10q0 -9 -10 -9zM393 712q-9 0 -9 10q0 9 9 9q10 0 10 -9q0 -10 -10 -10zM393 618q-9 0 -9 9q0 10 9 10q10 0 10 -10q0 -9 -10 -9zM364 684
q4 -73 5 -344q2 -225 12 -330q34 16 72 179q44 186 44 398q-78 22 -76 17q3 -4 6 49q2 24 -4 79q-5 55 -4 69q0 5 4 24q3 14 1 22q-5 24 -28 23q-28 -1 -32 -74q-2 -57 0 -112z" />
    <glyph glyph-name="comma" unicode="," horiz-adv-x="180" 
d="M0 -148l185 226h-159z" />
    <glyph glyph-name="hyphen" unicode="-" horiz-adv-x="465" 
d="M289 408q1 -17 3 -20q15 -2 71 -3q62 -1 90 -3q17 -29 -3 -47q-23 2 -78 2q-52 1 -76 4q-8 -2 -9 -15q-2 -17 -4 -20q-6 3 -9 15q-4 14 -7 17q-23 2 -72 0q-61 -3 -80 -2q-94 1 -115 43q49 14 131 13q104 -2 139 2q5 3 6 14q1 12 4 15q7 -2 9 -15z" />
    <glyph glyph-name="hyphen" unicode="&#xad;" horiz-adv-x="465" 
d="M289 408q1 -17 3 -20q15 -2 71 -3q62 -1 90 -3q17 -29 -3 -47q-23 2 -78 2q-52 1 -76 4q-8 -2 -9 -15q-2 -17 -4 -20q-6 3 -9 15q-4 14 -7 17q-23 2 -72 0q-61 -3 -80 -2q-94 1 -115 43q49 14 131 13q104 -2 139 2q5 3 6 14q1 12 4 15q7 -2 9 -15z" />
    <glyph glyph-name="period" unicode="." horiz-adv-x="218" 
d="M120 -58l-120 135h223z" />
    <glyph glyph-name="slash" unicode="/" horiz-adv-x="455" 
d="M36 57q-7 -19 8 -16q16 4 1 18zM67 156q0 -11 8 -8t4 11zM131 252q-2 5 -8 3q1 -12 8 -12q3 5 0 9zM176 349q0 -8 7 -8q6 0 5 7q-13 1 -12 1zM224 350q-25 -11 -48 -73q-30 -82 -46 -106q-65 -98 -63 -90q-13 -54 -9 -52q-28 -17 -43 17q-15 33 26 110q13 24 34 57
q23 36 24 40l213 377q88 157 145 224q3 1 -1 -29q-6 -39 -23 -92q-52 -166 -185 -387q-23 4 -24 4z" />
    <glyph glyph-name="zero" unicode="0" horiz-adv-x="419" 
d="M64 444v-2q0 -192 50 -328q49 -131 125 -131q71 0 122 136q52 133 52 326q0 190 -50 328q-51 136 -123 136q-71 0 -123 -141q-26 -71 -39.5 -150.5t-13.5 -173.5zM242 887v-2q59 0 67 -135q2 -54 4 -140.5t2 -185.5q0 -253 -15 -336q-15 -82 -61 -82q-15 0 -27 10
t-20.5 27.5t-13.5 41.5t-7 51q-5 53 -6.5 119t-1.5 160q0 105 2 192.5t7 145.5q6 67 22.5 99.5t47.5 34.5zM226 657q-5 -51 -43 -95q-25 -23 -53 -30q-13 -3 -23.5 -5t-17.5 -4l-17 -9q-9 -6 -18 -14.5t-18 -20.5q-1 -2 -3 -5t-5 -8q-28 -59 -14 -131l14 -30q2 -4 6 -7.5
t8 -6.5q-4 24 8 55q13 25 43 48l24 12t15 6l8 3l42 18l6 2l14 11l6 6t6 8q3 3 5.5 7.5t6.5 10.5q34 85 0 179zM206 -7l36 -85l31 85h-67z" />
    <glyph glyph-name="one" unicode="1" horiz-adv-x="463" 
d="M71 677l6 -28q7 8 15 18t19 21q2 3 4.5 4t4.5 5q14 13 26 24t19 11q14 0 19 -15.5t5 -51.5v-640h-61v-25h217v25h-57v877l-49 -1q-26 -56 -58.5 -97t-66.5 -81q-7 -7 -13 -13.5t-12 -14.5q-5 -4 -9.5 -9t-8.5 -9zM345 386q5 3 11 7t14 8q87 81 78 190q-27 -51 -104 -87
q-46 -18 -89 -17q-21 0 -36.5 0.5t-26.5 1.5l-28 -4q-31 -8 -68 -28q-2 -3 -17 -11q-65 -57 -79 -135l8 -36q2 -4 5.5 -9t8.5 -9q7 28 36 56q31 23 84 38q23 4 39 5.5t24 2.5h13l67 7l11 2l26 6q5 2 10 5t13 7z" />
    <glyph glyph-name="two" unicode="2" horiz-adv-x="378" 
d="M110 174v-2q189 189 225 273q37 83 37 201q0 117 -56 195q-54 80 -139 80q-60 0 -104 -67q-43 -67 -43 -162q0 -66 16.5 -105t45.5 -39q21 0 36 27.5t15 64.5q0 46 -15.5 64.5t-35.5 19.5l-10 -3q-1 -1 -3 -1q-19 0 -19 35q0 47 20 77.5t46 46.5q22 15 42 15
q102 0 102 -245q0 -109 -23 -183q-10 -32 -26 -67q-14 -33 -111 -225zM162 858l97 -103h-181zM83 120l97 -104h-180zM266 119l97 -103h-181z" />
    <glyph glyph-name="three" unicode="3" horiz-adv-x="438" 
d="M104 516q72 -1 102 41t30 142q0 201 -81 201q-6 0 -17.5 -2.5t-24.5 -10.5q-17 -9 -31.5 -24.5t-14.5 -37.5q0 -17 11 -17q20 0 34 -24.5t14 -65.5q0 -40 -13.5 -67.5t-33.5 -27.5q-23 0 -38 31.5t-15 81.5q0 44 9.5 76.5t26.5 58.5q37 53 94 53q73 0 123 -60
q50 -62 50 -147q0 -87 -30 -136t-96 -73q72 -13 110.5 -77t38.5 -178q0 -120 -56 -200q-57 -76 -145 -76q-70 0 -110.5 50.5t-40.5 143.5q0 53 16 85.5t42 32.5q21 0 34.5 -27t13.5 -73q0 -41 -9.5 -58.5t-21.5 -25.5q-5 -4 -9.5 -5.5t-8.5 -5.5q-6 -2 -10 -5.5t-4 -11.5
q0 -30 27 -53q26 -22 63 -22q32 0 54.5 12t36.5 39t20 70.5t6 105.5q0 170 -29 215q-30 46 -114 46l-38 1v25h35zM109 516v-25l38 -1q84 0 114 -46q29 -45 29 -215q0 -62 -6 -105.5t-20 -70.5t-36.5 -39t-54.5 -12q-37 0 -63 22q-27 23 -27 53q0 8 4 11.5t10 5.5
q4 4 8.5 5.5t9.5 5.5q12 8 21.5 25.5t9.5 58.5q0 46 -13.5 73t-34.5 27q-26 0 -42 -32.5t-16 -85.5q0 -93 40.5 -143.5t110.5 -50.5q88 0 145 76q56 80 56 200q0 114 -38.5 178t-110.5 77q66 24 96 73t30 136q0 85 -50 147q-50 60 -123 60q-57 0 -94 -53
q-17 -26 -26.5 -58.5t-9.5 -76.5q0 -50 15 -81.5t38 -31.5q20 0 33.5 27.5t13.5 67.5q0 41 -14 65.5t-34 24.5q-11 0 -11 17q0 22 14.5 37.5t31.5 24.5q13 8 24.5 10.5t17.5 2.5q81 0 81 -201q0 -100 -30 -142t-102 -41h-35zM149 516v-25l38 -1q84 0 114 -46q29 -45 29 -215
q0 -62 -6 -105.5t-20 -70.5t-36.5 -39t-54.5 -12q-37 0 -63 22q-27 23 -27 53q0 8 4 11.5t10 5.5q4 4 8.5 5.5t9.5 5.5q12 8 21.5 25.5t9.5 58.5q0 46 -13.5 73t-34.5 27q-26 0 -42 -32.5t-16 -85.5q0 -93 40.5 -143.5t110.5 -50.5q88 0 145 76q56 80 56 200
q0 114 -38.5 178t-110.5 77q66 24 96 73t30 136q0 85 -50 147q-50 60 -123 60q-57 0 -94 -53q-17 -26 -26.5 -58.5t-9.5 -76.5q0 -50 15 -81.5t38 -31.5q20 0 33.5 27.5t13.5 67.5q0 41 -14 65.5t-34 24.5q-11 0 -11 17q0 22 14.5 37.5t31.5 24.5q13 8 24.5 10.5t17.5 2.5
q81 0 81 -201q0 -100 -30 -142t-102 -41h-35z" />
    <glyph glyph-name="four" unicode="4" horiz-adv-x="369" 
d="M0 284v-50h214v-237h-64v-27h213v27h-61v237h53l-231 -1l231 146h-53v551h-45zM59 379l155 387v-387h-155z" />
    <glyph glyph-name="five" unicode="5" horiz-adv-x="524" 
d="M130 913v-1q4 -34 6 -57t3 -44q0 -14 0.5 -27t0.5 -29q0 -79 -6.5 -156t-20.5 -149l12 -8q24 117 94 117q54 0 83.5 -71.5t29.5 -211.5q0 -267 -111 -267q-41 0 -69 26q-30 27 -51 43q-22 16 22 -40q40 -55 110 -55q86 0 142 91q60 93 60 227q0 123 -57 206
q-57 84 -140 84q-23 0 -40 -6t-34 -22q-9 -7 -23 -24q4 32 6 57q1 17 2 33.5t1.5 36.5t1 43.5t0.5 54.5q2 6 3 7q3 3 8 3q17 0 32.5 -4.5t31.5 -10.5q15 -5 31.5 -10t32.5 -5q55 0 80 40t30 134l-10 9q0 -7 -2 -9q-8 -30 -22 -30q-13 0 -26 5.5t-26 11.5l-5 2.5t-6 2.5
q-10 6 -26.5 9.5t-34.5 7.5q-9 1 -17.5 2t-16.5 1q-11 0 -19 -1l-16 -2q-9 -4 -19.5 -7zM219 -10l36 -86l31 86h-67zM0 282l90 35v-65zM518 289l-90 34v-64z" />
    <glyph glyph-name="six" unicode="6" horiz-adv-x="513" 
d="M397 901v22q-126 0 -221 -177q-94 -172 -94 -418q0 -149 50 -247q51 -97 128 -97q70 0 118 92q49 90 49 221q0 115 -41 196t-100 81q-37 0 -59.5 -21.5t-41.5 -74.5q9 209 54 309q45 103 158 114zM320 280v-1v-55q-1 -28 -1.5 -55t-2.5 -55q-3 -48 -13.5 -74t-27.5 -26
q-37 0 -46 102q-2 25 -3.5 60t-1.5 75q-1 3 -1 9v11v22q0 18 0.5 38.5t1.5 39.5q2 33 5.5 61.5t8.5 54.5q10 52 36 52q28 0 36 -57q3 -30 5.5 -61.5t2.5 -65.5v-28v-11v-7q0 -4 1 -7v-22zM418 300l89 36l-89 29v-65zM237 -6l37 -85l31 85h-68zM90 359l-90 -36l90 -29v65z
" />
    <glyph glyph-name="seven" unicode="7" horiz-adv-x="392" 
d="M0 403h14l43 330h239q-18 -130 -43.5 -245t-54.5 -229q0 -5 -1 -8t-2 -7q-22 -87 -22 -154q0 -45 14.5 -73.5t37.5 -28.5q18 0 31.5 27.5t13.5 64.5q0 41 -9.5 56.5t-20.5 20.5q-2 1 -4.5 2t-4.5 2q-9 3 -15 8.5t-6 21.5q0 52 22 139q11 48 24.5 97t27.5 101
q5 18 10 34.5t10 32.5q12 42 24 82t23 75t20 63.5l15 47.5v42l-331 -1q-1 -5 -1 -13v-12v-13q0 -7 -1 -11q-2 -27 -3 -48t-3 -43q-1 -13 -6.5 -57t-15.5 -117.5t-16 -120t-9 -66.5z" />
    <glyph glyph-name="eight" unicode="8" horiz-adv-x="480" 
d="M211 484v-1q-6 -4 -12.5 -7.5t-13.5 -7.5q-47 -28 -84 -85q-39 -55 -39 -159q0 -109 49 -180q50 -69 126 -69q73 0 124 73q25 37 38 82t13 98q0 195 -150 258l14 8t15 8q38 26 70 74q31 47 31 136q0 94 -44 154q-42 60 -111 60q-35 0 -64 -16.5t-49.5 -47.5t-31.5 -74.5
t-11 -97.5q0 -65 26 -110q14 -22 28.5 -38.5t29.5 -29.5q26 -20 46 -28zM240 473v-2q34 -27 43 -88q5 -31 7.5 -70t2.5 -86q0 -119 -13.5 -172.5t-42.5 -53.5q-14 0 -23 11.5t-14.5 36.5t-8 65.5t-2.5 99.5q0 52 2 92.5t6 70.5q7 61 43 96zM240 500v0h-0.5h-1.5
q-23 23 -30 60q-6 41 -6 149q0 58 1.5 97t5.5 58q8 40 31 40q11 0 19 -10t12.5 -33.5t6.5 -62.5t2 -98q0 -50 -2 -83.5t-6 -53.5q-8 -40 -32 -63zM204 -15l36 -87l31 87h-67zM0 729l90 -36v66zM384 695l90 36l-90 30v-66z" />
    <glyph glyph-name="nine" unicode="9" horiz-adv-x="513" 
d="M99 12v-24q73 8 138 53t113 152q39 87 57 178.5t18 201.5q0 152 -51 248q-52 99 -128 99q-69 0 -117 -93q-49 -90 -49 -222q0 -113 41 -197q40 -79 101 -79q36 0 58 20.5t42 73.5q-5 -105 -18 -181t-36 -128q-54 -92 -169 -102zM192 628v-1v54q1 28 1.5 57t1.5 55
q6 100 37 100q16 0 26 -26.5t14 -75.5q2 -26 3 -63.5t2 -78.5v-10v-8v-19q0 -20 -0.5 -39t-1.5 -39q-2 -64 -12 -116q-11 -52 -31 -52q-24 0 -32 57q-3 29 -5 60t-2 65v27v27q-1 2 -1 11v15zM0 590l89 -35v65zM418 559l89 34l-89 30v-64z" />
    <glyph glyph-name="colon" unicode=":" 
 />
    <glyph glyph-name="semicolon" unicode=";" 
 />
    <glyph glyph-name="semicolon" unicode="&#x37e;" 
 />
    <glyph glyph-name="less" unicode="&#x3c;" 
 />
    <glyph glyph-name="equal" unicode="=" 
 />
    <glyph glyph-name="greater" unicode="&#x3e;" 
 />
    <glyph glyph-name="question" unicode="?" horiz-adv-x="438" 
d="M248 895q-77 1 -129 -69q-49 -76 -62 -194h-14v255h13q-2 -40 16 -47q71 63 164 60q8 -2 12 -5zM379 733q-6 -81 -64 -151q-38 -38 -79 -48q-20 -5 -35.5 -8.5t-26.5 -5.5l-25 -14q-28 -19 -55 -57q-2 -5 -12 -20q-41 -95 -21 -210l21 -46q4 -7 9.5 -12.5t12.5 -10.5
q-6 40 12 87q19 42 64 77q43 25 59 28l11 5l63 28l10 5l21 16q4 5 8.5 10.5t9.5 12.5q4 5 8 12t9 16q53 137 0 286zM338 520q-5 -9 -9.5 -16t-8.5 -12q-11 -17 -17 -23l-22 -16l-10 -5l-62 -29l-12 -4q-8 -2 -22.5 -9.5t-35.5 -18.5q-45 -36 -65 -77q-17 -47 -12 -88
q-13 10 -21 23l-22 47q-19 111 22 210q11 15 12 19q28 40 54 58l26 13q11 2 26 6t35 9q41 10 79 48q59 74 65 151q52 -150 0 -286zM122 -34l-120 135h224z" />
    <glyph glyph-name="at" unicode="@" horiz-adv-x="504" 
d="M65 736q-3 -6 -20 -11q-9 5 -10 16q-1 12 10 14q15 1 20 -19zM320 51q44 -107 87 -93q30 10 26 37q-1 11 -13 24q-14 16 -17 22q-8 15 -15 46q-9 40 -12 51q-14 44 -36 88q-23 47 -23 48q1 11 44 24l-9 23l146 47q-63 246 -208 545q-17 -4 -70 -29q-99 -48 -141 -71
q-32 -18 -39 -23q-2 -2 -1 -4q1 -3 0 -4q-4 -5 -10 -7q-7 -1 -5 2q4 -7 -10 -10q-14 -4 -10 -11q1 -5 91 -165q34 -60 88 -177q15 -34 77 -214q6 -16 60 -149z" />
    <glyph glyph-name="A" unicode="A" horiz-adv-x="458" 
d="M225 894l1 6h12l169 -906l45 -1v-24h-204v25h45l6 2l-107 594q-6 0 -58 -298l-1 -13q89 -21 76 -111q-12 -90 -112 -94q-24 -80 48 -80v-25h-134v25q61 6 68 85q-79 34 -70 126q26 72 107 78zM156 205q-13 27 -47 24q-53 -11 -50 -59q13 -47 57 -42q56 16 40 77z" />
    <glyph glyph-name="B" unicode="B" horiz-adv-x="462" 
d="M-9 877l55 -2v-354q1 -14 0.5 -25t-2.5 -19l2 -28v-398q-1 -30 0 -49l-4 -2h-51v-27h62l38 -192l43 192h25q86 -8 150 25q118 85 102 246q1 185 -145 229q164 93 112 300q-35 83 -104 118q-16 5 -28.5 7.5t-22.5 3.5l-11 2h-221v-27zM257 834q33 -72 27 -143q4 -7 2 -19
q4 -90 -27 -156q-51 -42 -109 -52l1 411q65 -2 106 -41zM168 459q37 -6 75 -25l4 -4l10 -8l15 -22l6 -13q18 -47 18 -82l2 -22l2 -4v-54q7 -101 -34 -184q-54 -44 -117 -39l2 459zM326 242h-206l103 -103zM-140 473l188 -37v68z" />
    <glyph glyph-name="C" unicode="C" horiz-adv-x="492" 
d="M219 897q10 2 21 7h42l13 -2q8 -4 23.5 -14t37.5 -27l30 -21q28 1 28 38l12 2v-277q-2 -8 0 -20l-15 -1q0 17 -20 132q-20 113 -84 152q-18 12 -40 15q-21 -2 -43 -22q-23 -21 -45 -87q-23 -67 -22 -202q58 -16 79 -83q6 -85 -83 -120v-76l2 -7v-25q0 -4 0.5 -9t1.5 -10
l5 -67q5 -14 6 -34l2 -6l4 -26l2 -6q4 -13 5 -26l13 -42q27 -42 57 -54q22 0 48 12q5 4 12 9.5t15 13.5q79 113 88 283h14v-319h-12q2 35 -28 51q-60 -71 -142 -70q-29 1 -61 22l-34 33l-9 11q-94 142 -100 334l-2 69l-1 8l-159 36l155 24l11 30l21 118l27 84q6 9 9 22l8 14
q1 3 3.5 9t7.5 16l27 43l8 10l2 4l24 26zM189 475q-12 39 -55 46q-59 -15 -44 -74q27 -44 78 -21q20 20 21 49z" />
    <glyph glyph-name="D" unicode="D" horiz-adv-x="554" 
d="M26 875v28h251l49 -11q148 -85 174 -299l-4 2q-67 238 -226 279h-88v-317q38 -25 55 -77q5 -68 -55 -111v-352l2 -16q85 -16 152 43l22 35q46 138 43 359h111q3 -171 -55 -312l-17 -37l-6 -12l-10 -15q-5 -7 -9 -13t-7 -11q-15 -19 -43 -37l-7 -6q-70 -27 -160 -19h-172
v25h47l5 2v368q-35 26 -50 72q-8 68 50 112v320h-52zM184 479q-18 37 -63 35q-37 -16 -41 -61q22 -59 82 -37q32 23 22 63zM332 -34q1 3 1 5q-9 -7 -21 -4q-22 6 -16 29l1 4q-9 -4 -13 -13l-37 -87q-2 -5 -2 -10q12 21 32 9q18 -10 10 -29q5 4 8 10zM226 -255q2 8 -2 15
q-12 -16 -30 -6q-8 5 -11 14q-6 -6 -8 -15l-15 -92q-1 -5 0 -10q8 5 17 4q20 -2 21 -22q11 6 13 19zM188 -503q0 7 -3 13q-2 -23 -25 -21q-18 2 -21 20q-2 -6 -2 -12v-94q0 -25 26 -25q25 0 25 25v94zM140 137q3 -6 7 -6l8 -1q-3 11 -3 24l-6 5v-9q-2 -10 -6 -13zM46 202
l7 -4q-1 1 -1 2q-6 7 -6 16v-14zM96 307v-18l27 -17q1 -1 1 -2q1 6 3 12q7 16 16 18q-2 3 -4 3l-43 4v0zM205 275h-4q0 -7 -4 -16q-7 -18 -16 -18q-2 -12 4 -14l8 -4l30 -1l6 -2q1 10 7 19q5 8 10 10q0 6 -4 8zM160 218q0 13 4 28l-15 4q-4 -6 -9 -12q2 -9 3 -19h3zM296 157
q0 -12 -3 -19l8 3q5 1 8 10l-16 22q3 -7 3 -16zM287 181q-1 -1 -1 -2q2 0 4 -1zM111 206v10q1 2 1 4h-3v-12zM189 146q0 20 9 23q-4 11 -9 11l-13 1q6 -11 3 -27q-1 -9 -5 -13q3 -6 7 -6h10q-2 5 -2 11zM229 172l2 2v1l-2 4q-8 -6 -15 -5q1 -2 1 -3zM370 89q-1 -2 -1 -4
l-16 -59q31 -30 14 -70l-39 -90q-18 -44 -64 -38l-18 -31q22 -22 17 -53l-16 -98q-7 -45 -53 -52l-4 -36q35 -17 35 -56v-99q0 -25 -18 -44q-19 -18 -44 -18q-26 0 -45 18q-18 19 -18 44v99q0 46 44 60l4 45q-30 22 -24 59l16 98q9 54 63 52l20 35q-24 29 -9 64l38 90
q16 38 57 38l15 54q-1 2 -1 4v2q-2 -3 -3 -7q-13 -22 -27 -30t-21 3l-16 21q-10 1 -18 18q-8 -12 -16 -11l-22 1q-6 -6 -12 -6l-43 2q-24 1 -27 55q-5 -1 -9 2l-10 6q-11 -19 -24 -10l-29 17v-18q0 -20 -20 -20q-21 0 -21 20v116q0 18 19 20q10 18 22 12v13q0 24 25 24
q7 0 13 -3q13 14 24 13l45 -4q20 -2 13 -43l18 -6q20 27 35 20l39 -19q22 -10 4 -61l4 -9l30 9q6 2 12 -2l21 7q4 1 8 0q5 3 11 3q25 0 25 -25v-98q1 -7 0 -13l-1 -1q0 -4 -2 -8v-2z" />
    <glyph glyph-name="E" unicode="E" horiz-adv-x="489" 
d="M23 875v28h392l2 -11v-176l2 -14v-62h-15q5 96 -43 191q-11 15 -30 29l-4 4q-42 18 -140 14l-4 -2v-59h-106v58h-54zM179 812l3 1l1 -46v-256l2 -12h78l14 6q28 54 27 162h16v-422q-8 -2 -14 4q4 110 -53 184h-70v-430q9 -2 20 -2.5t25 0.5h70q3 3 14 4h6l33 17
q86 89 70 250l12 2v-300h-266l-50 -169l-40 233v395l-207 41l207 25v211z" />
    <glyph glyph-name="F" unicode="F" horiz-adv-x="471" 
d="M2 875h54v-58h106v59l4 2q97 4 140 -14l4 -4q19 -13 30 -29q48 -94 43 -191h15v62l-2 14v176l-2 11h-392v-28zM158 812l-102 -102v-211l-357 -28l357 -38v-395l47 -193l6 9l53 184v395h70q58 -74 53 -184q6 -6 14 -4v422h-16q1 -108 -27 -162l-14 -6h-78l-2 12v256l-1 46
z" />
    <glyph glyph-name="G" unicode="G" horiz-adv-x="475" 
d="M215 899l12 4q84 10 146 -64q6 -5 20 -10q19 19 17 53q8 2 16 2v-313h-14q2 167 -103 289q-6 4 -13 7.5t-15 6.5q-100 14 -119 -148q-4 -9 -4 -26l-2 -6l-2 -21v-12l-2 -6v-17l-2 -8v-31l-2 -4l-2 -100q-1 -5 -1 -11v-14v-219l1 -6v-35q2 -2 2 -8v-10q62 -16 82 -86
q6 -60 -43 -103l10 -14q45 -43 121 -41q-93 -38 -168 39q-68 -14 -115 49q-35 70 24 135q-1 13 -8 31v6q-7 20 -8 43l-2 14l-2 13l-2 6l-2 33l-2 22q-1 8 -1.5 15.5t-0.5 13.5q2 80 5.5 136t8.5 89l2 15l8 39l4 10l2 14l9 31l2 4l4 14l4 8l2 7l20 43q8 11 15 28l4 4l14 21
l6 8l15 17l4 6q19 19 51 35zM318 231l-2 8h153l-50 -131l30 -1l-51 -120l-3 -4l-51 121h31zM177 99q-16 43 -65 43q-52 -22 -37 -77q28 -44 78 -21q24 19 24 55z" />
    <glyph glyph-name="H" unicode="H" horiz-adv-x="608" 
d="M50 878l5 -3l45 1v-873l-6 -2h-44v-25h212v15q0 8 1 12h-55v406q95 -111 187 2v-408l-6 -2h-46v-25h210v25h-5q-14 -1 -25.5 -1.5t-19.5 0.5v876l6 2h44v25h-210v-15v-13l52 1v-367q-92 119 -187 6v361l6 2h46q4 10 2 25h-212v-25zM344 493q25 -54 -19 -82
q-59 -15 -76 41q4 47 45 61q32 -2 50 -20zM701 476l-189 -37v68zM-100 468l188 -36v67zM217 -25q-1 3 -2 5q9 -7 21 -4q23 6 16 29l-1 4q9 -4 13 -13l37 -87q2 -5 2 -10q-11 21 -32 9q-18 -10 -9 -29q-6 4 -8 10zM322 -246q-1 8 2 15q12 -16 30 -6q9 5 11 14q7 -6 8 -15
l15 -92q1 -5 0 -10q-7 5 -16 4q-20 -2 -21 -22q-12 6 -14 19zM360 -494q0 7 3 13q3 -23 26 -21q18 2 20 20q3 -6 3 -12v-94q0 -25 -26 -25t-26 25v94zM409 146q-3 -6 -7 -6l-9 -1q3 11 4 24l5 5q0 -5 1 -9q2 -10 6 -13zM502 211l-6 -4q0 1 1 2q5 7 5 16v-14zM453 316v-18
l-27 -17l-2 -2q-1 6 -3 12q-6 16 -15 18q1 3 4 3l42 4h1zM344 284h4q0 -7 3 -16q8 -18 17 -18q1 -12 -4 -14l-8 -4l-30 -1l-6 -2q-2 10 -8 19q-5 8 -10 10q1 6 4 8zM389 227q0 13 -5 28l16 4l8 -12q-2 -9 -2 -19h-3zM252 166q0 -12 4 -19l-8 3q-5 1 -8 10l15 22
q-3 -7 -3 -16zM261 190l2 -2q-2 0 -4 -1zM438 215q0 6 -1 10q0 2 -1 4h4q-1 -6 -1 -12zM359 155q1 20 -8 23q3 11 9 11l12 1q-6 -11 -3 -27q2 -9 6 -13q-3 -6 -7 -6h-10q1 5 1 11zM319 181q0 1 -1 2l-1 1l2 4q8 -6 15 -5v-3zM179 98q0 -2 1 -4l16 -59q-32 -30 -15 -70
l39 -90q19 -44 65 -38l17 -31q-22 -22 -17 -53l16 -98q8 -45 54 -52l3 -36q-34 -17 -34 -56v-99q0 -25 18 -44q18 -18 44 -18t44 18q18 19 18 44v99q0 46 -43 60l-5 45q30 22 24 59l-15 98q-9 54 -64 52l-19 35q24 29 9 64l-39 90q-16 38 -56 38l-15 54v4v2q2 -3 4 -7
q12 -22 26 -30t22 3l15 21q11 1 19 18q7 -12 16 -11l22 1q5 -6 12 -6l43 2q24 1 26 55q5 -1 10 2l10 6q11 -19 24 -10l28 17v-18q0 -20 21 -20t21 20v116q0 18 -19 20q-10 18 -23 12v13q0 24 -24 24q-7 0 -13 -3q-14 14 -24 13l-45 -4q-21 -2 -13 -43l-19 -6q-20 27 -35 20
l-39 -19q-21 -10 -3 -61l-4 -9l-30 9q-6 2 -12 -2l-22 7q-4 1 -7 0q-5 3 -11 3q-25 0 -25 -25v-98q-2 -7 0 -13v-1l2 -8zM81.5 212q-4.5 -23 -4.5 -56t4.5 -56.5t11.5 -23.5t12 23.5t5 56.5t-5 56t-12 23t-11.5 -23zM467 -413q0 -18 -18 -18t-18 18v64q0 9 7 14
q3 -10 14 -10q7 0 12 6q3 -4 3 -10v-64zM431 -163q0 8 7 14q3 -10 14 -10q7 0 12 6q3 -5 3 -10v-65q0 -4 -2 -8q-5 6 -13 6q-12 0 -15 -11q-6 5 -6 13v65zM431 22q0 18 18 18t18 -18v-65q0 -4 -2 -8q-5 7 -13 7q-12 0 -15 -12q-6 5 -6 13v65zM492 25q0 18 -13 30
q-12 13 -30 13t-30 -13q-13 -12 -13 -30v-68q0 -32 31 -41v-35q-31 -9 -31 -41v-68q0 -32 31 -41v-35q-31 -9 -31 -42v-67q0 -18 13 -31q12 -12 30 -12t30 12q13 13 13 31v67q0 28 -25 39v40q25 12 25 39v68q0 27 -25 39v39q25 12 25 39v68z" />
    <glyph glyph-name="I" unicode="I" horiz-adv-x="283" 
d="M96 467q27 26 10 101q-21 98 -17 132q16 136 20 127q-25 60 -28 56q26 34 75 12t51 -123q0 -32 -4 -77q-4 -50 -4 -54l-8 -500q-4 -208 -32 -309q-4 -4 -22 28q-23 41 -41 103q-56 193 -40 492q39 11 40 12zM147.5 804q-3.5 -4 -3.5 -9t3.5 -8.5t8.5 -3.5t9 3.5t4 8.5
t-4 9t-9 4t-8.5 -4zM147.5 695q-3.5 -4 -3.5 -9t3.5 -8.5t8.5 -3.5t9 3.5t4 8.5t-4 9t-9 4t-8.5 -4zM149.5 568q-3.5 -4 -3.5 -9t3.5 -8.5t8.5 -3.5t9 3.5t4 8.5t-4 9t-9 4t-8.5 -4z" />
    <glyph glyph-name="J" unicode="J" horiz-adv-x="404" 
d="M179 876v26h219v-25l-56 -1l2 -856l-100 175v680zM21 -29q-21 118 100 140q81 -5 103 -86q13 -86 -60 -117q59 -75 136 14q-16 -72 -99 -70q-43 4 -70 48q-73 -1 -110 71zM166 37q-20 19 -51 20q-40 -13 -45 -61q18 -57 76 -41q47 29 20 82z" />
    <glyph glyph-name="K" unicode="K" horiz-adv-x="500" 
d="M0 876v28h211v-28l-55 1v-391l69 127l-22 22l-10 11q13 -3 38 -21l97 199q6 16 6 37q-18 19 -49 18v25h176v-25q-84 -17 -141 -124q-28 -54 -46.5 -89.5t-27.5 -52.5l26 -17l17 -18l6 -4l27 -29l2 -4l8 -8q162 -311 67 -724l-186 1q211 460 25 788l-80 -151l1 -446l52 1
v-27h-211v27h45l6 2v873z" />
    <glyph glyph-name="L" unicode="L" horiz-adv-x="465" 
d="M-14 -42q18 0 77 -2q47 -2 79 -1q0 35 5 43q0 7 17 8q17 0 14 10q38 266 29 340q-54 472 -12 665q64 5 71 -28q-2 11 -26 -61q-25 -74 15 -397q37 -292 30 -526q36 2 85 13q59 14 80 17q40 -66 14 -161q-47 5 -135 5q-110 0 -141 2q-160 7 -202 66v7z" />
    <glyph glyph-name="M" unicode="M" horiz-adv-x="561" 
d="M0 873h55l-2 -769q7 -105 -53 -106v-27h133v25q-36 -1 -53 29l-2 14q-2 11 -3 22t-1 21v33q-4 8 -2 20v719l117 -643h114l-127 691h-176v-29zM422 412q32 29 13 113q-26 111 -21 149q19 153 23 144q-29 67 -33 62q32 39 90 13q58 -24 60 -138q1 -35 -4 -86q-5 -56 -5 -61
l-10 -563q-4 -234 -38 -348q-4 -4 -26 32q-27 46 -49 116q-67 217 -47 553q46 13 47 14zM483.5 792q-4.5 -4 -4.5 -10t4.5 -10t10.5 -4t10.5 4t4.5 10t-4.5 10t-10.5 4t-10.5 -4zM483.5 669q-4.5 -4 -4.5 -10t4.5 -10t10.5 -4t10.5 4t4.5 10t-4.5 10t-10.5 4t-10.5 -4z
M486 526q-4 -4 -4 -10t4 -10t11 -4q6 0 10 4t4 10t-4 10t-10 4q-7 0 -11 -4z" />
    <glyph glyph-name="N" unicode="N" horiz-adv-x="526" 
d="M0 868v34h139q3 -4 75 -174.5t212 -508.5v-266q-14 -2 -27 6l-327 791v-680l6 -43q17 -32 53 -33v-25h-131v27q36 0 49 37l4 39l2 12v713l-28 72zM404 901l32 1h84l-65 -152h30l-49 -120l-51 121l27 -1l-65 151h57z" />
    <glyph glyph-name="O" unicode="O" horiz-adv-x="973" 
d="M541 330q39 37 33 92q-11 96 -99 87q-74 -7 -80 -90q-6 -80 54 -106q51 -22 92 17zM895 683q-7 -8 7 -10q-1 4 -7 10zM878 664q-21 1 -23 -12q5 24 67 -56q6 -15 31 -58q-59 -28 -56 -8q-2 -12 24 -36q29 -28 32 -34q3 -9 5 -28q1 -15 7 -22q2 0 -1 -12q-63 9 -49 14
q1 6 34 -87q0 -2 2 -68q-65 9 -54 21q-1 -9 9 -46q10 -40 10 -41q1 -12 -7 -31q-8 -22 -9 -33q-4 2 -10 10q-4 9 -10 10l2 7q-2 5 -13 12q6 -1 -18 -6l-21 21q-16 14 -22 20q-5 22 -13 23q-16 2 -14 -18q2 -19 23 -13q8 -8 24 -23t23 -23q-1 -11 1 -36q3 -25 1 -38
q-2 -11 -14 -31q-12 -19 -13 -31q-8 4 -14 30q-6 22 -21 20q12 1 -27 -87q6 13 -29 -31l-14 -19l-18 58q-14 2 -28 -33q-18 -42 -21 -45q-10 -5 -27 -17q-19 -14 -24 -17q1 -16 4 42q0 20 -15 21q-7 0 -31 -27q-16 -19 -25 -33q-63 -22 -61 -21q5 26 5 25q11 27 11 22
q-1 36 -60 -8q-15 -11 -23 -18q-17 4 -62 2q0 -1 21 30q12 20 -3 34q-8 -1 -38 -11q-38 -12 -36 -12q-9 0 -29 9q-18 9 -31 8q16 74 29 57q6 11 18 27q14 19 18 25q21 4 22 17q1 17 -15 16t-12 -25q-5 -6 -44 -58q-12 2 -34 0q-19 -2 -29 0q-9 3 -26 17q-17 15 -28 17
q3 9 28 15q20 5 17 24q2 -13 -78 31q-4 9 -19 24q-13 14 -17 25q2 2 32 7q19 2 13 22q-3 11 -29 25q-33 18 -36 21q-4 12 -14 31q-11 20 -15 31l36 -5q18 -3 18 15q1 13 -22 35q-27 26 -30 33q-6 12 -7 32t-6 30q4 3 29 -11q21 -13 25 7q3 13 -13 40q-19 31 -21 39
q-3 12 -1 34q3 23 1 36q9 -1 20 -18q10 -15 22 -13q18 3 9 39q-2 10 -8 30q-6 18 -7 24q5 21 18 62q3 -1 20 -26q12 -17 26 -5q-7 4 45 -41q-3 -22 15 -21t12 21q-2 6 -20 6q6 -8 -49 48q2 14 0 38q-2 23 0 34t15 30q13 18 14 30q57 -40 38 -48q7 13 22 81q41 41 45 43
q0 1 3 -35q1 -19 17 -16q12 2 25 33q15 35 19 39q7 3 27 17q16 12 25 14q-7 -59 7 -60q5 0 35 33q6 7 18 18l13 13q7 -2 23 2q16 5 24 2q0 -4 -2 -9t-2 -9q-10 -18 -9 -23q4 -23 37 -2q10 6 25 17q13 11 16 12q58 1 60 2q-1 -11 -14 -24q-13 -12 -12 -24q2 -20 35 -10
q58 18 49 16q8 -3 26 -9t26 -9l-22 -21q-13 -12 -5 -29q-5 -10 -18 -27t-18 -26q-13 1 -20 -9q-4 -29 20 -18q5 1 5 20q5 8 42 56q12 -1 35 1q20 2 30 -1q8 -2 26 -16q16 -13 28 -15q-3 -10 -25 -15q-20 -5 -20 -18q0 -15 53 -29q28 -8 21 -4q-3 2 24 -29q19 -11 20 -19
q-4 -7 -26 -6z" />
    <glyph glyph-name="P" unicode="P" horiz-adv-x="434" 
d="M188 901l7 2q222 25 233 -229h-111q-1 48 -6.5 81.5t-15.5 55.5q-19 43 -64 66q-37 6 -75 -7v-453q173 -43 256 128l2 -5q-53 -192 -258 -155v-393l65 1v-30h-72l-46 -153l-44 153h-59v30l51 -1l-1 878l-50 -2v29h129l4 2q9 0 16.5 0.5t12.5 1.5h26z" />
    <glyph glyph-name="Q" unicode="Q" horiz-adv-x="459" 
d="M273 40q83 36 132 160q23 61 35.5 128t12.5 142q0 177 -66 305q-65 128 -159 128q-100 0 -164 -133q-64 -134 -64 -302q0 -100 22 -188.5t67 -154.5q5 -8 10 -14.5t10 -13.5q9 -12 18.5 -21.5t21.5 -16.5q6 -5 14.5 -9.5t15.5 -9.5l1 -111q0 -69 32.5 -104.5t90.5 -35.5
q45 0 82 28q7 1 10 8l-5 23q-15 -13 -27.5 -19.5t-23.5 -8.5h-9q-57 0 -57 111v109zM338 471v-1v-73q0 -19 -0.5 -39t-1.5 -40q-2 -46 -5.5 -88t-9.5 -76q-10 -48 -35 -74.5t-59 -26.5q-30 0 -53.5 25t-34.5 65q-11 45 -16.5 125.5t-5.5 189.5v40v21v10t1 10q1 46 2 90t3 73
q11 176 104 176q56 0 79 -57q11 -28 18.5 -64t9.5 -84q0 -19 1 -46t1 -58q1 -28 1.5 -54t0.5 -44zM236 370l-120 135h224z" />
    <glyph glyph-name="R" unicode="R" horiz-adv-x="615" 
d="M423 279v-5l4 -11v-8q0 -6 1 -9l2 -14l2 -11l10 -260q1 -10 2 -19t1 -16l2 -12l1 -12l2 -9l2 -12l11 -42q19 -52 69 -52q54 3 77 48q0 14 -3 25q-22 -31 -43 -6l-7 18l-2 14l-2 3l-1 12l-2 18l-12 273l-1 5l-4 20l-3 11q-2 10 -5 17.5l-5 12.5q-59 68 -138 85
q35 -29 42 -64zM284 901h-26q-5 -1 -12.5 -1.5t-16.5 -0.5l-4 -2h-225l147 -44l1 -861l-52 1v-30h59l41 -173l49 173h72v30l-64 -1v393q204 -38 257 155l-2 5q-83 -171 -255 -128v453q37 13 74 7q44 -22 64 -66q20 -42 22 -137h111q-11 255 -232 229z" />
    <glyph glyph-name="S" unicode="S" horiz-adv-x="437" 
d="M183 894q76 1 129 -82q25 -46 40 -103.5t22 -127.5h14v303h-13q1 -44 -16 -55q-71 74 -164 70q-8 -2 -12 -5zM52 702q6 -95 64 -180q38 -44 78 -56t63 -18l25 -15q13 -11 27 -28.5t28 -40.5q1 -6 12 -23q41 -113 21 -250l-21 -55q-4 -8 -9.5 -15t-12.5 -13q6 50 -12 104
q-19 49 -64 92q-43 28 -59 33l-11 6l-63 33l-10 6l-21 20q-8 10 -18 27q-6 10 -17 33q-52 162 0 340zM72 -63l134 130l-134 137v-267zM93 448q10 -21 18 -33q7 -15 17 -27l22 -20l10 -6l62 -33l12 -6q16 -5 58 -33q23 -23 39 -46t26 -46q16 -54 12 -103q13 10 21 27l22 55
q19 132 -22 250q-11 17 -12 23q-29 46 -54 69l-26 15q-11 3 -26.5 7.5t-35.5 9.5q-41 12 -78 57q-59 86 -65 180q-52 -178 0 -340z" />
    <glyph glyph-name="T" unicode="T" horiz-adv-x="444" 
d="M0 839v64h438v-289h-15q-20 238 -153 260v-426q34 -23 53 -66l29 29l4 6q9 12 16 37q1 -5 1 -11v-12v-190l-25 45q-7 7 -12 16l-17 17q-17 -34 -49 -56l-1 -224l-54 -220q-23 103 -35.5 157t-14.5 60v227q-31 20 -47 58q-11 -8 -21.5 -21.5t-21.5 -30.5l-14 -26
q0 -3 -4 -4v215q13 -43 57 -76q13 45 51 68v426q-140 -20 -153 -260l-11 1zM266 382q-19 20 -51 25q-43 -10 -49 -60q18 -55 75 -43q45 25 25 78z" />
    <glyph glyph-name="U" unicode="U" horiz-adv-x="528" 
d="M0 877l50 -1v-584l2 -8v-47l2 -8v-11q2 -12 3 -21.5t1 -17.5l2 -6l2 -12l2 -12q2 -20 8 -33l4 -19l19 -49q96 -156 243 -76q33 28 46 64q-88 -70 -168 -10l-2 4q-62 81 -54 188v659l53 1v25h-213v-26zM347 880q40 -4 57 -35q0 -8 4 -16l2 -12v-15q2 -9 2.5 -16.5
t-0.5 -14.5l1 -182q-123 -24 -103 -137q34 -79 112 -74q74 14 93 80q7 105 -86 130v215l1 14l2 22q12 31 53 39v25h-138v-23zM468 483q-4 -31 -25 -48q-53 -20 -78 25q-14 66 51 74q48 -9 52 -51zM422 270l-36 90h67z" />
    <glyph glyph-name="V" unicode="V" horiz-adv-x="456" 
d="M0 867v35h450v-35q-41 7 -57 -33l-162 -883h-12l-154 811l-2 8l94 93q4 -10 32 -162t81 -447l2 14q99 576 84 599h-356z" />
    <glyph glyph-name="W" unicode="W" horiz-adv-x="684" 
d="M0 861v41h678v-41q-34 8 -41 -40q-4 -23 -43.5 -237.5t-114.5 -620.5q-1 -6 -1.5 -11t-0.5 -9h-22l-8 49l-1 14q-3 2 -100 541l-2 8l-2 9q0 -7 -24.5 -145t-75.5 -411l-2 -12l-7 -43l-2 -6q-7 -4 -20 -4q-4 13 -6 32l-4 17q-1 17 -138 766v6l95 91l4 -31l106 -586
q31 175 47 264t17 94t1.5 9t0.5 6l-29 159l92 89q52 -281 79 -432.5t30 -174.5l4 -14q102 600 90 623h-600z" />
    <glyph glyph-name="X" unicode="X" horiz-adv-x="494" 
d="M19 877v25h217q2 -13 -2 -25q-10 1 -22 0.5t-27 -2.5l84 -270l67 209l4 32v11q-14 20 -41 20v25h129v-25q-26 -6 -47 -29q-6 -8 -32 -75.5t-72 -196.5l164 -553l6 -19q9 -2 19.5 -3.5t21.5 -0.5v-27h-215v27q10 -1 22.5 -0.5t26.5 2.5l-228 785l87 88zM86 172l8 19
l93 -218h-187z" />
    <glyph glyph-name="Y" unicode="Y" horiz-adv-x="449" 
d="M0 868v35h443v-35q-34 6 -47 -25l-99 -430l-6 -21l-6 -26l-2 -13v-350h55v-27h-213v25h51l3 2v293q-2 6 -15.5 67t-39.5 179q-52 232 -54 238l88 90zM349 868h-181l93 -430v-5l12 -47l6 29v6l82 381v13q1 22 -6 47z" />
    <glyph glyph-name="Z" unicode="Z" horiz-adv-x="431" 
d="M29 882v21h396l-181 -529l-2 -4q17 -17 24 -41q17 12 35 35q10 13 15 37q1 -5 1.5 -10.5t0.5 -12.5v-190l-31 53l-23 26q-23 -48 -78 -71q-2 -8 -17 -56.5t-44 -138.5h84q8 -1 18 -0.5t21 2.5h12l8 2q8 2 17 5.5t20 8.5q23 16 45 43q42 72 47 173q3 15 1 36l2 13v8
q7 4 12 -4l1 -312h-413v25l82 232q-8 10 -18 30l-1 6q-38 -36 -57 -81l-4 -3v216q16 -43 57 -76q16 52 72 78l152 467q2 2 0 8h-111q-8 0 -19.5 -2t-25.5 -10l-6 -2q-8 -7 -17 -15.5t-18 -19.5q-42 -92 -42 -222h-15v275zM219 302q-7 44 -57 52q-49 -10 -49 -62
q11 -41 55 -45q44 6 51 55z" />
    <glyph glyph-name="bracketleft" unicode="[" 
d="M-136 -50q14 0 62 -2q37 -2 63 -1q0 35 3 43q0 7 15 7q13 1 10 11q31 265 24 339q-43 472 -10 665q52 5 57 -29q-2 12 -21 -60q-20 -74 12 -397q30 -292 24 -525q29 2 68 13q48 14 64 16q32 -65 12 -160q-39 5 -109 5q-88 0 -112 2q-128 7 -162 66v7z" />
    <glyph glyph-name="backslash" unicode="\" 
 />
    <glyph glyph-name="bracketright" unicode="]" 
 />
    <glyph glyph-name="asciicircum" unicode="^" 
 />
    <glyph glyph-name="underscore" unicode="_" horiz-adv-x="867" 
d="M41 15q-10 0 -10 10q0 9 10 9q9 0 9 -9q0 -10 -9 -10zM149 15q-9 0 -9 10q0 9 9 9q10 0 10 -9q0 -10 -10 -10zM243 15q-9 0 -9 10q0 9 9 9q10 0 10 -9q0 -10 -10 -10zM75 54q-73 -4 -74 -32q-1 -23 23 -28q8 -2 22 1q19 4 24 4q14 1 69 -4q55 -6 79 -4q53 3 49 6
q-5 2 17 -76q212 0 398 44q163 38 179 72q-106 10 -330 12q-271 1 -344 5q-55 2 -112 0z" />
    <glyph glyph-name="grave" unicode="`" horiz-adv-x="412" 
d="M125 1162q8 -7 12 -10q19 31 68 27q4 -7 -1 -16q-5 -10 -1 -17q4 -3 16 -4q10 -1 15 -6q-5 6 -1 -21q13 0 17 -3q-1 1 0 -21q18 -13 15 -9q5 -6 2 -12q-4 -9 -3 -12q18 -14 73 -53q46 -33 69 -53q-72 -14 -164 58q-47 -39 -99 -108q-72 -94 -87 -112q-9 12 -28 37
q-18 24 -28 37q110 174 107 159q3 13 -2 44q-3 29 1 46q-2 6 -9 5q-9 -1 -11 1q-7 19 27 53q4 -3 12 -10z" />
    <glyph glyph-name="a" unicode="a" horiz-adv-x="458" 
d="M225 894l1 6h12l169 -906l45 -1v-24h-204v25h45l6 2l-107 594q-6 0 -58 -298l-1 -13q89 -21 76 -111q-12 -90 -112 -94q-24 -80 48 -80v-25h-134v25q61 6 68 85q-79 34 -70 126q26 72 107 78zM156 205q-13 27 -47 24q-53 -11 -50 -59q13 -47 57 -42q56 16 40 77z" />
    <glyph glyph-name="b" unicode="b" horiz-adv-x="576" 
d="M131 877l55 -2v-354q1 -14 0.5 -25t-2.5 -19l2 -28v-398q-1 -30 0 -49l-4 -2h-51v-27h62l38 -192l43 192h25q86 -8 150 25q118 85 102 246q1 185 -145 229q164 93 112 300q-35 83 -104 118q-16 5 -28.5 7.5t-22.5 3.5l-11 2h-221v-27zM397 834q33 -72 27 -143q4 -7 2 -19
q4 -90 -27 -156q-51 -42 -109 -52l1 411q65 -2 106 -41zM308 459q37 -6 75 -25l4 -4l10 -8l15 -22l6 -13q18 -47 18 -82l2 -22l2 -4v-54q7 -101 -34 -184q-54 -44 -117 -39l2 459zM466 242h-206l103 -103zM0 473l188 -37v68z" />
    <glyph glyph-name="c" unicode="c" horiz-adv-x="554" 
d="M339 897q10 2 21 7h42l13 -2q8 -4 23.5 -14t37.5 -27l30 -21q28 1 28 38l12 2v-277q-2 -8 0 -20l-15 -1q0 17 -20 132q-20 113 -84 152q-18 12 -40 15q-21 -2 -43 -22q-23 -21 -45 -87q-23 -67 -22 -202q58 -16 79 -83q6 -85 -83 -120v-76l2 -7v-25q0 -4 0.5 -9t1.5 -10
l5 -67q5 -14 6 -34l2 -6l4 -26l2 -6q4 -13 5 -26l13 -42q27 -42 57 -54q22 0 48 12q5 4 12 9.5t15 13.5q79 113 88 283h14v-319h-12q2 35 -28 51q-60 -71 -142 -70q-29 1 -61 22l-34 33l-9 11q-94 142 -100 334l-2 69l-1 8l-159 36l155 24l11 30l21 118l27 84q6 9 9 22l8 14
q1 3 3.5 9t7.5 16l27 43l8 10l2 4l24 26zM309 475q-12 39 -55 46q-59 -15 -44 -74q27 -44 78 -21q20 20 21 49z" />
    <glyph glyph-name="d" unicode="d" horiz-adv-x="501" 
d="M6 875v28h251l49 -11q148 -85 174 -299l-4 2q-67 238 -226 279h-88v-317q38 -25 55 -77q5 -68 -55 -111v-352l2 -16q85 -16 152 43l22 35q46 138 43 359h111q3 -171 -55 -312l-17 -37l-6 -12l-10 -15q-5 -7 -9 -13t-7 -11q-15 -19 -43 -37l-7 -6q-70 -27 -160 -19h-172
v25h47l5 2v368q-35 26 -50 72q-8 68 50 112v320h-52zM164 479q-18 37 -63 35q-37 -16 -41 -61q22 -59 82 -37q32 23 22 63z" />
    <glyph glyph-name="e" unicode="e" horiz-adv-x="489" 
d="M23 875v28h392l2 -11v-176l2 -14v-62h-15q5 96 -43 191q-11 15 -30 29l-4 4q-42 18 -140 14l-4 -2v-59h-106v58h-54zM179 812l3 1l1 -46v-256l2 -12h78l14 6q28 54 27 162h16v-422q-8 -2 -14 4q4 110 -53 184h-70v-430q9 -2 20 -2.5t25 0.5h70q3 3 14 4h6l33 17
q86 89 70 250l12 2v-300h-266l-50 -169l-40 233v395l-207 41l207 25v211z" />
    <glyph glyph-name="f" unicode="f" horiz-adv-x="705" 
d="M303 875h54v-58h106v59l4 2q97 4 140 -14l4 -4q19 -13 30 -29q48 -94 43 -191h15v62l-2 14v176l-2 11h-392v-28zM459 812l-102 -102v-211l-357 -28l357 -38v-395l47 -193l6 9l53 184v395h70q58 -74 53 -184q6 -6 14 -4v422h-16q1 -108 -27 -162l-14 -6h-78l-2 12v256
l-1 46z" />
    <glyph glyph-name="g" unicode="g" horiz-adv-x="475" 
d="M215 899l12 4q84 10 146 -64q6 -5 20 -10q19 19 17 53q8 2 16 2v-313h-14q2 167 -103 289q-6 4 -13 7.5t-15 6.5q-100 14 -119 -148q-4 -9 -4 -26l-2 -6l-2 -21v-12l-2 -6v-17l-2 -8v-31l-2 -4l-2 -100q-1 -5 -1 -11v-14v-219l1 -6v-35q2 -2 2 -8v-10q62 -16 82 -86
q6 -60 -43 -103l10 -14q45 -43 121 -41q-93 -38 -168 39q-68 -14 -115 49q-35 70 24 135q-1 13 -8 31v6q-7 20 -8 43l-2 14l-2 13l-2 6l-2 33l-2 22q-1 8 -1.5 15.5t-0.5 13.5q2 80 5.5 136t8.5 89l2 15l8 39l4 10l2 14l9 31l2 4l4 14l4 8l2 7l20 43q8 11 15 28l4 4l14 21
l6 8l15 17l4 6q19 19 51 35zM318 231l-2 8h153l-50 -131l30 -1l-51 -120l-3 -4l-51 121h31zM177 99q-16 43 -65 43q-52 -22 -37 -77q28 -44 78 -21q24 19 24 55z" />
    <glyph glyph-name="h" unicode="h" horiz-adv-x="807" 
d="M150 878l5 -3l45 1v-873l-6 -2h-44v-25h212v15q0 8 1 12h-55v406q95 -111 187 2v-408l-6 -2h-46v-25h210v25h-5q-14 -1 -25.5 -1.5t-19.5 0.5v876l6 2h44v25h-210v-15v-13l52 1v-367q-92 119 -187 6v361l6 2h46q4 10 2 25h-212v-25zM444 493q25 -54 -19 -82
q-59 -15 -76 41q4 47 45 61q32 -2 50 -20zM801 476l-189 -37v68zM0 468l188 -36v67z" />
    <glyph glyph-name="i" unicode="i" horiz-adv-x="237" 
d="M76 467q27 26 10 101q-21 98 -17 132q16 136 20 127q-25 60 -28 56q26 34 75 12t51 -123q0 -32 -4 -77q-4 -50 -4 -54l-8 -500q-4 -208 -32 -309q-4 -4 -22 28q-23 41 -41 103q-56 193 -40 492q39 11 40 12zM127.5 804q-3.5 -4 -3.5 -9t3.5 -8.5t8.5 -3.5t9 3.5t4 8.5
t-4 9t-9 4t-8.5 -4zM127.5 695q-3.5 -4 -3.5 -9t3.5 -8.5t8.5 -3.5t9 3.5t4 8.5t-4 9t-9 4t-8.5 -4zM129.5 568q-3.5 -4 -3.5 -9t3.5 -8.5t8.5 -3.5t9 3.5t4 8.5t-4 9t-9 4t-8.5 -4z" />
    <glyph glyph-name="j" unicode="j" horiz-adv-x="404" 
d="M179 876v26h219v-25l-56 -1l2 -856l-100 175v680zM21 -29q-21 118 100 140q81 -5 103 -86q13 -86 -60 -117q59 -75 136 14q-16 -72 -99 -70q-43 4 -70 48q-73 -1 -110 71zM166 37q-20 19 -51 20q-40 -13 -45 -61q18 -57 76 -41q47 29 20 82z" />
    <glyph glyph-name="k" unicode="k" horiz-adv-x="500" 
d="M0 876v28h211v-28l-55 1v-391l69 127l-22 22l-10 11q13 -3 38 -21l97 199q6 16 6 37q-18 19 -49 18v25h176v-25q-84 -17 -141 -124q-28 -54 -46.5 -89.5t-27.5 -52.5l26 -17l17 -18l6 -4l27 -29l2 -4l8 -8q162 -311 67 -724l-186 1q211 460 25 788l-80 -151l1 -446l52 1
v-27h-211v27h45l6 2v873z" />
    <glyph glyph-name="l" unicode="l" horiz-adv-x="465" 
d="M51 876v26h217v-25h-55l-4 -2v-64h-104v64zM105 707q67 15 104 94v-547q36 -23 53 -65q24 6 54 69v-213l-31 53l-23 25q-17 -36 -53 -59l1 -64h99l21 4l14 4l33 19l16 16q55 67 54 248h12v-316h-408v25h55l-1 68q-29 20 -44 57l-28 -29l-6 -8l-27 -45v215q24 -68 57 -76
q14 40 48 68v457zM209 186q-19 20 -51 25q-43 -12 -49 -61q16 -53 73 -43q47 26 27 79z" />
    <glyph glyph-name="m" unicode="m" horiz-adv-x="561" 
d="M0 873h55l-2 -769q7 -105 -53 -106v-27h133v25q-36 -1 -53 29l-2 14q-2 11 -3 22t-1 21v33q-4 8 -2 20v719l117 -643h114l-127 691h-176v-29zM422 412q32 29 13 113q-26 111 -21 149q19 153 23 144q-29 67 -33 62q32 39 90 13q58 -24 60 -138q1 -35 -4 -86q-5 -56 -5 -61
l-10 -563q-4 -234 -38 -348q-4 -4 -26 32q-27 46 -49 116q-67 217 -47 553q46 13 47 14zM483.5 792q-4.5 -4 -4.5 -10t4.5 -10t10.5 -4t10.5 4t4.5 10t-4.5 10t-10.5 4t-10.5 -4zM483.5 669q-4.5 -4 -4.5 -10t4.5 -10t10.5 -4t10.5 4t4.5 10t-4.5 10t-10.5 4t-10.5 -4z
M486 526q-4 -4 -4 -10t4 -10t11 -4q6 0 10 4t4 10t-4 10t-10 4q-7 0 -11 -4z" />
    <glyph glyph-name="n" unicode="n" horiz-adv-x="526" 
d="M0 868v34h139q3 -4 75 -174.5t212 -508.5v-266q-14 -2 -27 6l-327 791v-680l6 -43q17 -32 53 -33v-25h-131v27q36 0 49 37l4 39l2 12v713l-28 72zM404 901l32 1h84l-65 -152h30l-49 -120l-51 121l27 -1l-65 151h57z" />
    <glyph glyph-name="o" unicode="o" horiz-adv-x="604" 
d="M514 439v-1q-2 103 -17.5 185t-45.5 148q-62 132 -150 132q-93 0 -155 -143q-60 -146 -60 -323q0 -192 64 -332q61 -138 150 -138q93 0 151 142q60 143 63 317v13zM405 439v-1v-77q0 -20 -0.5 -41.5t-1.5 -43.5q-2 -48 -5 -94t-9 -82q-9 -51 -32.5 -80t-56.5 -29
q-28 0 -50.5 26t-32.5 71q-10 49 -15.5 136t-5.5 202v43v23v12t1 11q1 49 2 95t3 79q10 190 98 190q54 0 75 -63q10 -30 17 -69.5t9 -88.5q0 -21 1 -50.5t1 -61.5q1 -30 1.5 -58t0.5 -49zM310 598l-113 -144h210zM298 -132l36 90h-67zM0 472l96 -36v68zM509 441l89 36
l-89 32v-68z" />
    <glyph glyph-name="p" unicode="p" horiz-adv-x="434" 
d="M188 901l7 2q222 25 233 -229h-111q-1 48 -6.5 81.5t-15.5 55.5q-19 43 -64 66q-37 6 -75 -7v-453q173 -43 256 128l2 -5q-53 -192 -258 -155v-393l65 1v-30h-72l-46 -153l-44 153h-59v30l51 -1l-1 878l-50 -2v29h129l4 2q9 0 16.5 0.5t12.5 1.5h26z" />
    <glyph glyph-name="q" unicode="q" horiz-adv-x="459" 
d="M273 40q83 36 132 160q23 61 35.5 128t12.5 142q0 177 -66 305q-65 128 -159 128q-100 0 -164 -133q-64 -134 -64 -302q0 -100 22 -188.5t67 -154.5q5 -8 10 -14.5t10 -13.5q9 -12 18.5 -21.5t21.5 -16.5q6 -5 14.5 -9.5t15.5 -9.5l1 -111q0 -69 32.5 -104.5t90.5 -35.5
q45 0 82 28q7 1 10 8l-5 23q-15 -13 -27.5 -19.5t-23.5 -8.5h-9q-57 0 -57 111v109zM338 471v-1v-73q0 -19 -0.5 -39t-1.5 -40q-2 -46 -5.5 -88t-9.5 -76q-10 -48 -35 -74.5t-59 -26.5q-30 0 -53.5 25t-34.5 65q-11 45 -16.5 125.5t-5.5 189.5v40v21v10t1 10q1 46 2 90t3 73
q11 176 104 176q56 0 79 -57q11 -28 18.5 -64t9.5 -84q0 -19 1 -46t1 -58q1 -28 1.5 -54t0.5 -44zM236 370l-120 135h224z" />
    <glyph glyph-name="r" unicode="r" horiz-adv-x="615" 
d="M423 279v-5l4 -11v-8q0 -6 1 -9l2 -14l2 -11l10 -260q1 -10 2 -19t1 -16l2 -12l1 -12l2 -9l2 -12l11 -42q19 -52 69 -52q54 3 77 48q0 14 -3 25q-22 -31 -43 -6l-7 18l-2 14l-2 3l-1 12l-2 18l-12 273l-1 5l-4 20l-3 11q-2 10 -5 17.5l-5 12.5q-59 68 -138 85
q35 -29 42 -64zM284 901h-26q-5 -1 -12.5 -1.5t-16.5 -0.5l-4 -2h-225l147 -44l1 -861l-52 1v-30h59l41 -173l49 173h72v30l-64 -1v393q204 -38 257 155l-2 5q-83 -171 -255 -128v453q37 13 74 7q44 -22 64 -66q20 -42 22 -137h111q-11 255 -232 229z" />
    <glyph glyph-name="s" unicode="s" horiz-adv-x="437" 
d="M183 894q76 1 129 -82q25 -46 40 -103.5t22 -127.5h14v303h-13q1 -44 -16 -55q-71 74 -164 70q-8 -2 -12 -5zM52 702q6 -95 64 -180q38 -44 78 -56t63 -18l25 -15q13 -11 27 -28.5t28 -40.5q1 -6 12 -23q41 -113 21 -250l-21 -55q-4 -8 -9.5 -15t-12.5 -13q6 50 -12 104
q-19 49 -64 92q-43 28 -59 33l-11 6l-63 33l-10 6l-21 20q-8 10 -18 27q-6 10 -17 33q-52 162 0 340zM72 -63l134 130l-134 137v-267zM93 448q10 -21 18 -33q7 -15 17 -27l22 -20l10 -6l62 -33l12 -6q16 -5 58 -33q23 -23 39 -46t26 -46q16 -54 12 -103q13 10 21 27l22 55
q19 132 -22 250q-11 17 -12 23q-29 46 -54 69l-26 15q-11 3 -26.5 7.5t-35.5 9.5q-41 12 -78 57q-59 86 -65 180q-52 -178 0 -340z" />
    <glyph glyph-name="t" unicode="t" horiz-adv-x="444" 
d="M0 839v64h438v-289h-15q-20 238 -153 260v-426q34 -23 53 -66l29 29l4 6q9 12 16 37q1 -5 1 -11v-12v-190l-25 45q-7 7 -12 16l-17 17q-17 -34 -49 -56l-1 -224l-54 -220q-23 103 -35.5 157t-14.5 60v227q-31 20 -47 58q-11 -8 -21.5 -21.5t-21.5 -30.5l-14 -26
q0 -3 -4 -4v215q13 -43 57 -76q13 45 51 68v426q-140 -20 -153 -260l-11 1zM266 382q-19 20 -51 25q-43 -10 -49 -60q18 -55 75 -43q45 25 25 78z" />
    <glyph glyph-name="u" unicode="u" horiz-adv-x="528" 
d="M0 877l50 -1v-584l2 -8v-47l2 -8v-11q2 -12 3 -21.5t1 -17.5l2 -6l2 -12l2 -12q2 -20 8 -33l4 -19l19 -49q96 -156 243 -76q33 28 46 64q-88 -70 -168 -10l-2 4q-62 81 -54 188v659l53 1v25h-213v-26zM347 880q40 -4 57 -35q0 -8 4 -16l2 -12v-15q2 -9 2.5 -16.5
t-0.5 -14.5l1 -182q-123 -24 -103 -137q34 -79 112 -74q74 14 93 80q7 105 -86 130v215l1 14l2 22q12 31 53 39v25h-138v-23zM468 483q-4 -31 -25 -48q-53 -20 -78 25q-14 66 51 74q48 -9 52 -51zM422 270l-36 90h67z" />
    <glyph glyph-name="v" unicode="v" horiz-adv-x="456" 
d="M0 867v35h450v-35q-41 7 -57 -33l-162 -883h-12l-154 811l-2 8l94 93q4 -10 32 -162t81 -447l2 14q99 576 84 599h-356z" />
    <glyph glyph-name="w" unicode="w" horiz-adv-x="684" 
d="M0 861v41h678v-41q-34 8 -41 -40q-4 -23 -43.5 -237.5t-114.5 -620.5q-1 -6 -1.5 -11t-0.5 -9h-22l-8 49l-1 14q-3 2 -100 541l-2 8l-2 9q0 -7 -24.5 -145t-75.5 -411l-2 -12l-7 -43l-2 -6q-7 -4 -20 -4q-4 13 -6 32l-4 17q-1 17 -138 766v6l95 91l4 -31l106 -586
q31 175 47 264t17 94t1.5 9t0.5 6l-29 159l92 89q52 -281 79 -432.5t30 -174.5l4 -14q102 600 90 623h-600z" />
    <glyph glyph-name="x" unicode="x" horiz-adv-x="494" 
d="M19 877v25h217q2 -13 -2 -25q-10 1 -22 0.5t-27 -2.5l84 -270l67 209l4 32v11q-14 20 -41 20v25h129v-25q-26 -6 -47 -29q-6 -8 -32 -75.5t-72 -196.5l164 -553l6 -19q9 -2 19.5 -3.5t21.5 -0.5v-27h-215v27q10 -1 22.5 -0.5t26.5 2.5l-228 785l87 88zM86 172l8 19
l93 -218h-187z" />
    <glyph glyph-name="y" unicode="y" horiz-adv-x="449" 
d="M0 868v35h443v-35q-34 6 -47 -25l-99 -430l-6 -21l-6 -26l-2 -13v-350h55v-27h-213v25h51l3 2v293q-2 6 -15.5 67t-39.5 179q-52 232 -54 238l88 90zM349 868h-181l93 -430v-5l12 -47l6 29v6l82 381v13q1 22 -6 47z" />
    <glyph glyph-name="z" unicode="z" horiz-adv-x="431" 
d="M29 882v21h396l-181 -529l-2 -4q17 -17 24 -41q17 12 35 35q10 13 15 37q1 -5 1.5 -10.5t0.5 -12.5v-190l-31 53l-23 26q-23 -48 -78 -71q-2 -8 -17 -56.5t-44 -138.5h84q8 -1 18 -0.5t21 2.5h12l8 2q8 2 17 5.5t20 8.5q23 16 45 43q42 72 47 173q3 15 1 36l2 13v8
q7 4 12 -4l1 -312h-413v25l82 232q-8 10 -18 30l-1 6q-38 -36 -57 -81l-4 -3v216q16 -43 57 -76q16 52 72 78l152 467q2 2 0 8h-111q-8 0 -19.5 -2t-25.5 -10l-6 -2q-8 -7 -17 -15.5t-18 -19.5q-42 -92 -42 -222h-15v275zM219 302q-7 44 -57 52q-49 -10 -49 -62
q11 -41 55 -45q44 6 51 55z" />
  </font>
</defs>
</svg>
